<svg width="15" height="15" viewBox="0 0 15 15" fill="none" xmlns="http://www.w3.org/2000/svg">
<path id="Vector" d="M15.0009 7.49815C15.0009 7.53493 15.0009 7.57026 15.0009 7.60777C14.9763 8.63619 14.5948 9.80597 12.9815 9.80597C11.3127 9.80597 10.9622 8.55109 10.9622 7.49815V4.61336C10.9623 4.53427 10.9463 4.45599 10.9149 4.38337C10.8835 4.31076 10.8376 4.24537 10.7799 4.19126C10.7222 4.13716 10.654 4.09549 10.5795 4.06885C10.5051 4.04221 10.4259 4.03117 10.347 4.03641C10.1984 4.04917 10.0601 4.11782 9.96015 4.22851C9.86017 4.3392 9.80589 4.48369 9.80826 4.63284V4.92131C9.28741 4.4545 8.63737 4.15642 7.94378 4.06632C7.25018 3.97621 6.54556 4.09833 5.92273 4.41656C5.2999 4.7348 4.78808 5.23424 4.45468 5.84909C4.12128 6.46394 3.98195 7.16536 4.05504 7.86096C4.12813 8.55655 4.41021 9.21369 4.86412 9.74581C5.31804 10.2779 5.92249 10.6601 6.59787 10.8419C7.27324 11.0237 7.98786 10.9967 8.64758 10.7644C9.3073 10.5321 9.88118 10.1054 10.2936 9.54057C10.3657 9.66671 10.4472 9.78725 10.5374 9.90117C10.9247 10.3829 11.6625 10.9599 12.9815 10.9599C13.2043 10.9606 13.4267 10.9425 13.6465 10.9058C13.7008 10.8967 13.7566 10.9034 13.8072 10.925C13.8579 10.9467 13.9013 10.9824 13.9323 11.0279C13.9633 11.0734 13.9806 11.1268 13.9823 11.1818C13.9839 11.2369 13.9697 11.2913 13.9414 11.3385C13.2633 12.4759 12.2963 13.4137 11.1386 14.0565C9.98089 14.6993 8.67367 15.0244 7.3497 14.9986C3.39899 14.9192 0.158663 11.7431 0.00576951 7.79456C-0.0333373 6.79807 0.126668 5.80379 0.476424 4.86988C0.826181 3.93597 1.35867 3.08119 2.04273 2.35554C2.72679 1.62988 3.54869 1.04793 4.46036 0.643725C5.37202 0.239519 6.35514 0.0211741 7.3522 0.00146504C8.34926 -0.018244 9.34024 0.161078 10.2672 0.528941C11.1941 0.896804 12.0383 1.44582 12.7506 2.14387C13.4628 2.84193 14.0286 3.675 14.415 4.59436C14.8014 5.51371 15.0006 6.50089 15.0009 7.49815ZM5.19261 7.49815C5.19261 7.95459 5.32796 8.40078 5.58155 8.7803C5.83513 9.15982 6.19557 9.45562 6.61727 9.6303C7.03897 9.80497 7.50299 9.85067 7.95067 9.76163C8.39834 9.67258 8.80956 9.45278 9.13231 9.13002C9.45507 8.80727 9.67487 8.39605 9.76391 7.94838C9.85296 7.50071 9.80726 7.03668 9.63259 6.61498C9.45791 6.19328 9.16211 5.83285 8.78259 5.57926C8.40307 5.32567 7.95688 5.19032 7.50043 5.19032C6.88836 5.19032 6.30135 5.43347 5.86855 5.86627C5.43575 6.29907 5.19261 6.88607 5.19261 7.49815Z" fill="#D70000"/>
</svg>
