<svg width="14" height="15" viewBox="0 0 14 15" fill="none" xmlns="http://www.w3.org/2000/svg">
<path id="Vector" d="M12.2222 5H10V3.33333C10 2.44928 9.64881 1.60143 9.02369 0.976311C8.39857 0.351189 7.55072 0 6.66667 0C5.78261 0 4.93477 0.351189 4.30964 0.976311C3.68452 1.60143 3.33333 2.44928 3.33333 3.33333V5H1.11111C0.816426 5 0.533811 5.11706 0.325437 5.32544C0.117063 5.53381 0 5.81643 0 6.11111V13.8889C0 14.1836 0.117063 14.4662 0.325437 14.6746C0.533811 14.8829 0.816426 15 1.11111 15H12.2222C12.5169 15 12.7995 14.8829 13.0079 14.6746C13.2163 14.4662 13.3333 14.1836 13.3333 13.8889V6.11111C13.3333 5.81643 13.2163 5.53381 13.0079 5.32544C12.7995 5.11706 12.5169 5 12.2222 5ZM4.44444 3.33333C4.44444 2.74396 4.67857 2.17873 5.09532 1.76198C5.51207 1.34524 6.0773 1.11111 6.66667 1.11111C7.25604 1.11111 7.82127 1.34524 8.23801 1.76198C8.65476 2.17873 8.88889 2.74396 8.88889 3.33333V5H4.44444V3.33333Z" fill="#D70000"/>
</svg>
